<svg enable-background="new 0 0 500 500" viewBox="0 0 500 500" xmlns="http://www.w3.org/2000/svg"><path d="m.2 251c0-137.5 111.6-249 249-249s248.9 111.5 248.9 249-111.4 248.9-248.9 248.9c-137.4 0-249-111.4-249-248.9z" fill="#e01b22"/><g fill="#fff"><path d="m408.6 179.6c-27.9-59.8-88.8-101.6-159.4-102.8v-.1l-.4.1-.1-.1-.1.1c-70.6 1.2-131.5 43-159.4 102.8-10.6 22.4-16.4 47.5-16.4 73.8 0 15.6 2.1 30.8 6 45.3 20 74.6 88.3 129.9 169.8 131.2h.3.4c81.5-1.4 149.9-56.6 169.9-131.2 3.8-14.5 6-29.7 6-45.3-.1-26.3-6-51.4-16.6-73.8zm-28-17.6c-10.4 2.3-27.5 5.7-50.4 8.4-15.7-36.5-39-61.3-56.4-76 44.2 7.5 82.3 32.6 106.8 67.6zm-49.2 92.7c0 30.8-6.4 56.3-15.7 77.5-19.3 2.5-41.4 4.3-65.6 4.5-.3 0-.6 0-.6 0-.5 0-.7 0-.7 0-.4 0-.7 0-.9 0-24.2-.3-46.2-2-65.7-4.5-9.3-21.2-15.7-46.7-15.7-77.5 0-25.6 4.7-48 12-67.3 0 0 27.2 3.4 70.8 3.8 43.7.4 69.2-3.5 70.2-3.8 7.2 19.3 11.9 41.6 11.9 67.3zm-82.5-157.7c14.8 10.3 44.8 34.7 64.2 75.3-18.5 1.8-40 3.1-64.2 3.3-24.1-.2-45.5-1.5-64.1-3.3 19.4-40.5 49.4-64.9 64.1-75.3zm-24.8-2.5c-17.5 14.7-40.7 39.5-56.5 76-23-2.8-40-6.1-50.5-8.4 24.7-35.1 62.8-60.2 107-67.6zm-135.7 159.9c0-8 .3-10 .7-15.7 2.1-22.6 8.9-43.8 19.4-62.7 9.5 2.4 27.6 6.2 53.5 9.5-6.3 18.4-10.3 39.4-10.9 63.1-.1 6.6-.1 9.9.1 15.6 1 24.8 6.1 46.6 13.5 65.4-34.1-5.5-57.1-12.5-64.1-14.9-7.7-18.6-12.1-39-12.2-60.3zm21.8 79.4c13.7 3.9 34.8 8.9 62 12.7 15.8 31.4 37.5 53 53.8 66-49.5-7.7-91.7-37.4-115.8-78.7zm138.7 76.6c-12.5-7.9-38.9-27.3-58.4-61.5 17.3 1.9 36.4 3.1 57.2 3.4h.9.6.9c20.8-.3 39.9-1.5 57.1-3.4-19.5 34.1-45.6 53.6-58.3 61.5zm22.9 2.2c16.3-13 38-34.6 53.9-66 27.1-3.9 48.3-8.9 61.9-12.7-24.1 41.2-66.2 70.9-115.8 78.7zm125.4-97.9c-6.9 2.4-29.9 9.4-63.9 14.9 7.2-18.7 12.3-40.5 13.4-65.4.2-5.8.3-9 .1-15.6-.6-23.7-4.7-44.7-10.8-63.1 25.8-3.3 44-7.2 53.6-9.5 10.4 18.9 17.2 40.2 19.3 62.7.3 5.7.7 7.7.7 15.7-.3 21.3-4.6 41.7-12.4 60.3z"/><path d="m249.6 207.7h-.1-.1-.2-.2c-28.6.1-52 23.3-52 51.6 0 24.1 9.4 34 23.8 43.3 1.2.7 2.1 2.4 2.2 3.7 0 1.4.2 2.6.2 2.6 0 .3.1.6.1.9.5 2.2 2.2 4.7 6.8 4.7 2.3 0 3.7-2.3 3.7-3.9v-3.6c0-1 .8-1.9 1.8-1.9 1.1 0 1.7.9 1.7 1.9v3.4c0 1.6 1.5 4.2 5.1 4.2s5.1-2.5 5.1-4.2v-3.4c0-1 .8-1.9 1.8-1.9s1.8.9 1.8 1.9v3.4c0 1.6 1.5 4.2 5.3 4.2 3.7 0 4.8-2.5 4.8-4.2v-3.4c0-1 .8-1.9 1.7-1.9 1 0 1.8.9 1.8 1.9v3.6c0 1.6 1.2 3.9 3.9 3.9 4.4 0 6.2-2.4 6.9-4.7 0-.3.1-.6.1-.9v.1c0-.3 0-1.5.1-2.7 0-1.4 1.1-3.1 2.2-3.9 14.3-9.2 23.9-17.5 23.9-43.2 0-28.2-23.3-51.3-52.2-51.5zm-22.2 77.9c-8.1 0-14.1-6.8-14.1-14.8s7.9-8 15.9-8 12.9 0 12.9 8c-.1 8.1-6.8 14.8-14.7 14.8zm29.2 7.8c-.4.4-1 .7-1.7.7-.6 0-1.1-.3-1.7-.7l-2.9-2c-.2-.1-.4-.2-1-.2-.5 0-.8.1-1 .2l-2.9 2c-.6.4-1 .7-1.7.7s-1.3-.3-1.8-.7c-.5-.6-.8-1.1-.8-1.7 0-.8.3-1.4.8-1.8l5.5-5.6c.5-.4 1.2-.6 1.8-.6.8 0 1.3.2 1.8.6l5.5 5.6c.5.4.7 1 .7 1.8.1.5-.1 1.1-.6 1.7zm17.7-7.8c-8.2 0-14.5-6.4-14.5-14.3 0-8 6.3-14.4 14.5-14.4 7.9 0 14.3 6.4 14.3 14.4 0 7.9-6.4 14.3-14.3 14.3z"/></g></svg>